<mxfile host="app.diagrams.net" modified="2023-10-18T13:03:33.732Z" agent="Mozilla/5.0 (X11; Linux x86_64) AppleWebKit/537.36 (KHTML, like Gecko) Chrome/118.0.0.0 Safari/537.36" version="22.0.4" etag="fWXKEje2j_jwAwI4bS1u" type="github">
  <diagram name="第 1 页" id="mZ-K9eQIYL1unyvgufwI">
    <mxGraphModel>
      <root>
        <mxCell id="0" />
        <mxCell id="1" parent="0" />
      </root>
    </mxGraphModel>
  </diagram>
</mxfile>
